<svg width="323" height="89" viewBox="0 0 323 89" fill="none" xmlns="http://www.w3.org/2000/svg">
<g filter="url(#filter0_ddd_1_1294)">
<path d="M45.084 57.972L30 49.224V44.94L45.084 36.228V41.628L35.724 47.064L45.084 52.5V57.972ZM257.04 57.72V52.68L274.068 31.872L275.508 31.8V36.768L258.48 57.612L257.04 57.72ZM277.721 58.044V52.572L287.081 47.136L277.721 41.736V36.3L292.841 45.012V49.296L277.721 58.044Z" fill="#CC66FF"/>
<path d="M53.7476 57.72C52.8356 57.72 51.9956 57.492 51.2276 57.036C50.4836 56.58 49.8836 55.98 49.4276 55.236C48.9716 54.468 48.7436 53.628 48.7436 52.716V50.736H53.4956V52.5C53.4956 52.62 53.5316 52.728 53.6036 52.824C53.6996 52.896 53.8076 52.932 53.9276 52.932H69.4436C69.5636 52.932 69.6596 52.896 69.7316 52.824C69.8276 52.728 69.8756 52.62 69.8756 52.5V47.568C69.8756 47.448 69.8276 47.352 69.7316 47.28C69.6596 47.208 69.5636 47.172 69.4436 47.172H53.7476C52.8356 47.172 51.9956 46.944 51.2276 46.488C50.4836 46.032 49.8836 45.432 49.4276 44.688C48.9716 43.92 48.7436 43.068 48.7436 42.132V36.804C48.7436 35.892 48.9716 35.064 49.4276 34.32C49.8836 33.552 50.4836 32.94 51.2276 32.484C51.9956 32.028 52.8356 31.8 53.7476 31.8H69.6596C70.5716 31.8 71.3996 32.028 72.1436 32.484C72.9116 32.94 73.5236 33.552 73.9796 34.32C74.4356 35.064 74.6636 35.892 74.6636 36.804V38.784H69.8756V37.02C69.8756 36.9 69.8276 36.804 69.7316 36.732C69.6596 36.636 69.5636 36.588 69.4436 36.588H53.9276C53.8076 36.588 53.6996 36.636 53.6036 36.732C53.5316 36.804 53.4956 36.9 53.4956 37.02V41.952C53.4956 42.072 53.5316 42.168 53.6036 42.24C53.6996 42.312 53.8076 42.348 53.9276 42.348H69.6596C70.5716 42.348 71.3996 42.576 72.1436 43.032C72.9116 43.488 73.5236 44.1 73.9796 44.868C74.4356 45.612 74.6636 46.452 74.6636 47.388V52.716C74.6636 53.628 74.4356 54.468 73.9796 55.236C73.5236 55.98 72.9116 56.58 72.1436 57.036C71.3996 57.492 70.5716 57.72 69.6596 57.72H53.7476ZM83.3818 57.72C82.4698 57.72 81.6418 57.492 80.8978 57.036C80.1538 56.58 79.5538 55.98 79.0978 55.236C78.6418 54.492 78.4138 53.664 78.4138 52.752V41.808C78.4138 40.896 78.6418 40.068 79.0978 39.324C79.5538 38.58 80.1538 37.98 80.8978 37.524C81.6418 37.068 82.4698 36.84 83.3818 36.84H94.6498C95.5618 36.84 96.3898 37.068 97.1338 37.524C97.9018 37.98 98.5018 38.58 98.9338 39.324C99.3898 40.068 99.6178 40.896 99.6178 41.808V52.752C99.6178 53.664 99.3898 54.492 98.9338 55.236C98.5018 55.98 97.9138 56.58 97.1698 57.036C96.4258 57.492 95.5858 57.72 94.6498 57.72H83.3818ZM83.5618 53.004H94.4698C94.5898 53.004 94.6858 52.968 94.7578 52.896C94.8538 52.8 94.9018 52.692 94.9018 52.572V41.988C94.9018 41.868 94.8538 41.772 94.7578 41.7C94.6858 41.604 94.5898 41.556 94.4698 41.556H83.5618C83.4418 41.556 83.3338 41.604 83.2378 41.7C83.1658 41.772 83.1298 41.868 83.1298 41.988V52.572C83.1298 52.692 83.1658 52.8 83.2378 52.896C83.3338 52.968 83.4418 53.004 83.5618 53.004ZM103.201 57.72V30H107.917V36.84H119.437C120.35 36.84 121.178 37.068 121.921 37.524C122.689 37.98 123.289 38.58 123.722 39.324C124.178 40.068 124.405 40.896 124.405 41.808V52.752C124.405 53.664 124.178 54.492 123.722 55.236C123.289 55.98 122.689 56.58 121.921 57.036C121.178 57.492 120.35 57.72 119.437 57.72H103.201ZM108.35 53.004H119.257C119.377 53.004 119.473 52.968 119.546 52.896C119.642 52.8 119.69 52.692 119.69 52.572V41.988C119.69 41.868 119.642 41.772 119.546 41.7C119.473 41.604 119.377 41.556 119.257 41.556H108.35C108.229 41.556 108.121 41.604 108.025 41.7C107.953 41.772 107.917 41.868 107.917 41.988V52.572C107.917 52.692 107.953 52.8 108.025 52.896C108.121 52.968 108.229 53.004 108.35 53.004ZM127.141 57.72V41.808C127.141 40.896 127.369 40.068 127.825 39.324C128.281 38.58 128.881 37.98 129.625 37.524C130.393 37.068 131.221 36.84 132.109 36.84H143.701V41.556H132.289C132.169 41.556 132.061 41.604 131.965 41.7C131.893 41.772 131.857 41.868 131.857 41.988V57.72H127.141ZM151.128 57.72C150.216 57.72 149.388 57.492 148.644 57.036C147.9 56.58 147.3 55.98 146.844 55.236C146.388 54.492 146.16 53.664 146.16 52.752V41.808C146.16 40.896 146.388 40.068 146.844 39.324C147.3 38.58 147.9 37.98 148.644 37.524C149.388 37.068 150.216 36.84 151.128 36.84H162.396C163.308 36.84 164.136 37.068 164.88 37.524C165.648 37.98 166.248 38.58 166.68 39.324C167.136 40.068 167.364 40.896 167.364 41.808V49.656H150.876V52.572C150.876 52.692 150.912 52.8 150.984 52.896C151.08 52.968 151.188 53.004 151.308 53.004H167.364V57.72H151.128ZM150.876 45.408H162.648V41.988C162.648 41.868 162.6 41.772 162.504 41.7C162.432 41.604 162.336 41.556 162.216 41.556H151.308C151.188 41.556 151.08 41.604 150.984 41.7C150.912 41.772 150.876 41.868 150.876 41.988V45.408ZM182.27 57.72V31.8H187.49L196.886 42.996L206.246 31.8H211.502V57.72H206.714V38.712L196.886 50.412L187.022 38.748V57.72H182.27ZM215.524 57.72V36.84H220.24V57.72H215.524ZM215.524 34.752V30H220.24V34.752H215.524ZM223.576 57.72V36.84H249.461C250.397 36.84 251.237 37.068 251.981 37.524C252.725 37.98 253.313 38.58 253.745 39.324C254.201 40.068 254.429 40.896 254.429 41.808V57.72H249.749V41.988C249.749 41.868 249.701 41.772 249.605 41.7C249.509 41.604 249.401 41.556 249.28 41.556H241.829C241.709 41.556 241.601 41.604 241.505 41.7C241.433 41.772 241.397 41.868 241.397 41.988V57.72H236.645V41.988C236.645 41.868 236.597 41.772 236.501 41.7C236.429 41.604 236.333 41.556 236.213 41.556H228.725C228.604 41.556 228.496 41.604 228.4 41.7C228.328 41.772 228.292 41.868 228.292 41.988V57.72H223.576Z" fill="#F2F2F2"/>
</g>
<defs>
<filter id="filter0_ddd_1_1294" x="0" y="0" width="322.841" height="88.0439" filterUnits="userSpaceOnUse" color-interpolation-filters="sRGB">
<feFlood flood-opacity="0" result="BackgroundImageFix"/>
<feColorMatrix in="SourceAlpha" type="matrix" values="0 0 0 0 0 0 0 0 0 0 0 0 0 0 0 0 0 0 127 0" result="hardAlpha"/>
<feOffset/>
<feGaussianBlur stdDeviation="15"/>
<feComposite in2="hardAlpha" operator="out"/>
<feColorMatrix type="matrix" values="0 0 0 0 0.8 0 0 0 0 0.4 0 0 0 0 1 0 0 0 0.4 0"/>
<feBlend mode="normal" in2="BackgroundImageFix" result="effect1_dropShadow_1_1294"/>
<feColorMatrix in="SourceAlpha" type="matrix" values="0 0 0 0 0 0 0 0 0 0 0 0 0 0 0 0 0 0 127 0" result="hardAlpha"/>
<feOffset/>
<feGaussianBlur stdDeviation="10"/>
<feComposite in2="hardAlpha" operator="out"/>
<feColorMatrix type="matrix" values="0 0 0 0 0.8 0 0 0 0 0.4 0 0 0 0 1 0 0 0 0.6 0"/>
<feBlend mode="normal" in2="effect1_dropShadow_1_1294" result="effect2_dropShadow_1_1294"/>
<feColorMatrix in="SourceAlpha" type="matrix" values="0 0 0 0 0 0 0 0 0 0 0 0 0 0 0 0 0 0 127 0" result="hardAlpha"/>
<feOffset/>
<feGaussianBlur stdDeviation="5"/>
<feComposite in2="hardAlpha" operator="out"/>
<feColorMatrix type="matrix" values="0 0 0 0 0.8 0 0 0 0 0.4 0 0 0 0 1 0 0 0 0.8 0"/>
<feBlend mode="normal" in2="effect2_dropShadow_1_1294" result="effect3_dropShadow_1_1294"/>
<feBlend mode="normal" in="SourceGraphic" in2="effect3_dropShadow_1_1294" result="shape"/>
</filter>
</defs>
</svg>
