<svg width="24" height="40" viewBox="0 0 24 40" fill="none" xmlns="http://www.w3.org/2000/svg">
<mask id="path-1-inside-1_1_1238" fill="white">
<path d="M0 12C0 5.37258 5.37258 0 12 0C18.6274 0 24 5.37258 24 12V28C24 34.6274 18.6274 40 12 40C5.37258 40 0 34.6274 0 28V12Z"/>
</mask>
<path d="M12 0M24 12H22V28H24H26V12H24ZM12 40M0 28H2V12H0H-2V28H0ZM12 40V38C6.47715 38 2 33.5228 2 28H0H-2C-2 35.732 4.26801 42 12 42V40ZM24 28H22C22 33.5228 17.5228 38 12 38V40V42C19.732 42 26 35.732 26 28H24ZM12 0V2C17.5228 2 22 6.47715 22 12H24H26C26 4.26801 19.732 -2 12 -2V0ZM12 0V-2C4.26801 -2 -2 4.26801 -2 12H0H2C2 6.47715 6.47715 2 12 2V0Z" fill="#CC66FF" fill-opacity="0.5" mask="url(#path-1-inside-1_1_1238)"/>
<rect x="9" y="10" width="6" height="12" rx="3" fill="#CC66FF"/>
</svg>
