<svg width="40" height="40" viewBox="0 0 40 40" fill="none" xmlns="http://www.w3.org/2000/svg">
<path d="M33.3333 3.33337H6.66667C4.82572 3.33337 3.33333 4.82576 3.33333 6.66671V13.3334C3.33333 15.1743 4.82572 16.6667 6.66667 16.6667H33.3333C35.1743 16.6667 36.6667 15.1743 36.6667 13.3334V6.66671C36.6667 4.82576 35.1743 3.33337 33.3333 3.33337Z" stroke="#FF33BB" stroke-width="3.33333" stroke-linecap="round" stroke-linejoin="round"/>
<path d="M33.3333 23.3334H6.66667C4.82572 23.3334 3.33333 24.8258 3.33333 26.6667V33.3334C3.33333 35.1743 4.82572 36.6667 6.66667 36.6667H33.3333C35.1743 36.6667 36.6667 35.1743 36.6667 33.3334V26.6667C36.6667 24.8258 35.1743 23.3334 33.3333 23.3334Z" stroke="#FF33BB" stroke-width="3.33333" stroke-linecap="round" stroke-linejoin="round"/>
<path d="M10 10H10.0167" stroke="#FF33BB" stroke-width="3.33333" stroke-linecap="round" stroke-linejoin="round"/>
<path d="M10 30H10.0167" stroke="#FF33BB" stroke-width="3.33333" stroke-linecap="round" stroke-linejoin="round"/>
</svg>
