<svg width="40" height="40" viewBox="0 0 40 40" fill="none" xmlns="http://www.w3.org/2000/svg">
<path d="M20 13.3334C28.2843 13.3334 35 11.0948 35 8.33337C35 5.57195 28.2843 3.33337 20 3.33337C11.7157 3.33337 5 5.57195 5 8.33337C5 11.0948 11.7157 13.3334 20 13.3334Z" stroke="#00FFFF" stroke-width="3.33333" stroke-linecap="round" stroke-linejoin="round"/>
<path d="M5 8.33337V31.6667C5 32.9928 6.58035 34.2646 9.3934 35.2022C12.2064 36.1399 16.0218 36.6667 20 36.6667C23.9782 36.6667 27.7936 36.1399 30.6066 35.2022C33.4196 34.2646 35 32.9928 35 31.6667V8.33337" stroke="#00FFFF" stroke-width="3.33333" stroke-linecap="round" stroke-linejoin="round"/>
<path d="M5 20C5 21.3261 6.58035 22.5979 9.3934 23.5355C12.2064 24.4732 16.0218 25 20 25C23.9782 25 27.7936 24.4732 30.6066 23.5355C33.4196 22.5979 35 21.3261 35 20" stroke="#00FFFF" stroke-width="3.33333" stroke-linecap="round" stroke-linejoin="round"/>
</svg>
