<svg width="40" height="40" viewBox="0 0 40 40" fill="none" xmlns="http://www.w3.org/2000/svg">
<path d="M21.3833 3.63336C20.9491 3.43527 20.4773 3.33276 20 3.33276C19.5227 3.33276 19.0509 3.43527 18.6167 3.63336L4.33334 10.1334C4.03759 10.2638 3.78614 10.4774 3.60961 10.7481C3.43308 11.0189 3.3391 11.3351 3.3391 11.6584C3.3391 11.9816 3.43308 12.2978 3.60961 12.5686C3.78614 12.8394 4.03759 13.053 4.33334 13.1834L18.6333 19.7C19.0676 19.8981 19.5394 20.0006 20.0167 20.0006C20.494 20.0006 20.9657 19.8981 21.4 19.7L35.7 13.2C35.9958 13.0696 36.2472 12.856 36.4237 12.5853C36.6003 12.3145 36.6942 11.9983 36.6942 11.675C36.6942 11.3518 36.6003 11.0355 36.4237 10.7648C36.2472 10.494 35.9958 10.2804 35.7 10.15L21.3833 3.63336Z" stroke="#CC66FF" stroke-width="3.33333" stroke-linecap="round" stroke-linejoin="round"/>
<path d="M36.6667 29.4166L21.3833 36.35C20.9491 36.548 20.4773 36.6506 20 36.6506C19.5227 36.6506 19.0509 36.548 18.6167 36.35L3.33333 29.4166" stroke="#CC66FF" stroke-width="3.33333" stroke-linecap="round" stroke-linejoin="round"/>
<path d="M36.6667 21.0834L21.3833 28.0167C20.9491 28.2148 20.4773 28.3173 20 28.3173C19.5227 28.3173 19.0509 28.2148 18.6167 28.0167L3.33333 21.0834" stroke="#CC66FF" stroke-width="3.33333" stroke-linecap="round" stroke-linejoin="round"/>
</svg>
